<?xml version="1.0" standalone="no"?>
<!DOCTYPE svg PUBLIC "-//W3C//DTD SVG 20010904//EN"
 "http://www.w3.org/TR/2001/REC-SVG-20010904/DTD/svg10.dtd">
<svg version="1.0" xmlns="http://www.w3.org/2000/svg"
 width="700.000000pt" height="700.000000pt" viewBox="0 0 700.000000 700.000000"
 preserveAspectRatio="xMidYMid meet">
<metadata>
Created by potrace 1.14, written by Peter Selinger 2001-2017
</metadata>
<g transform="translate(0.000000,700.000000) scale(0.100000,-0.100000)"
fill="#000000" stroke="none">
<path d="M1293 6259 c-39 -8 -159 -58 -213 -87 -129 -72 -282 -192 -420 -331
-197 -198 -299 -395 -350 -674 -11 -62 -23 -130 -28 -152 -14 -79 -5 -578 13
-685 3 -14 7 -65 10 -115 7 -113 14 -206 20 -270 3 -27 7 -75 10 -105 6 -61
23 -202 29 -240 3 -14 10 -59 16 -100 48 -309 112 -605 190 -872 41 -139 148
-453 193 -564 212 -522 536 -912 1042 -1255 107 -72 113 -75 165 -73 30 1 68
7 83 13 41 16 175 51 222 57 22 3 60 10 85 14 43 8 288 5 340 -4 108 -18 169
-26 325 -40 39 -4 88 -9 110 -11 22 -2 74 -7 115 -11 41 -3 91 -9 110 -13 42
-9 367 -7 395 2 11 4 40 9 65 12 25 3 56 7 70 10 14 3 34 7 45 9 210 41 489
153 649 260 38 25 72 46 76 46 5 0 10 3 12 8 2 4 28 25 58 48 103 77 238 207
350 339 230 270 408 574 544 930 67 176 71 182 162 233 147 82 249 145 329
205 91 68 265 241 310 308 16 24 32 46 35 49 28 26 160 276 160 302 0 8 4 18
9 24 8 9 38 92 46 130 2 10 10 48 19 84 27 113 29 141 29 310 0 176 0 180 -38
362 -93 451 -334 784 -667 925 -73 30 -167 59 -228 69 -14 3 -47 9 -75 14
-242 47 -558 21 -815 -67 -218 -74 -402 -183 -541 -322 -210 -211 -320 -481
-313 -772 1 -57 4 -115 7 -129 3 -14 8 -43 12 -65 4 -22 13 -62 21 -89 18 -64
18 -66 -8 -61 -48 10 -158 18 -263 19 -535 10 -923 -189 -1166 -599 -97 -162
-156 -325 -223 -609 -7 -27 -14 -14 -75 125 -162 370 -306 581 -600 878 -236
238 -375 439 -508 736 -61 134 -144 363 -145 396 -1 29 34 79 55 79 6 0 44 16
84 36 l73 37 25 -27 c48 -51 182 -98 257 -90 74 8 64 2 287 160 39 29 67 59
88 96 26 45 38 56 72 66 53 17 97 71 113 140 9 41 22 65 50 93 21 20 39 47 39
58 1 12 2 27 3 34 3 21 -31 130 -58 184 -35 72 -78 117 -215 226 -331 265
-409 308 -566 310 -47 1 -97 -1 -112 -4z"/>
</g>
</svg>
